<svg xmlns="http://www.w3.org/2000/svg" viewBox="0 0 250 50">
    <!-- Logo -->
    <g>
        <svg width="50" height="50" viewBox="0 0 22 22">
            <path xmlns="http://www.w3.org/2000/svg" d="m483.24 0h-150.29c-27.556 0-66.04 15.94-85.52 35.424l-232.81 232.81c-19.483 19.483-19.483 51.37 0 70.85l179.64 179.64c19.483 19.484 51.37 19.484 70.849 0l232.81-232.81c19.483-19.484 35.424-57.969 35.424-85.52v-150.29c-.0001-27.554-22.544-50.1-50.1-50.1m-66.57 166.67c-27.614 0-50-22.385-50-50 0-27.614 22.386-50 50-50 27.614 0 50 22.386 50 50 0 27.614-22.386 50-50 50z" transform="matrix(.03 0 0 .03 2.994 2.992)" stroke="#4d4d4d" fill="#111"/>
        </svg>
    </g>

    <!-- Text (generated with 'text-to-svg', the font is OpenSans-Regular) -->
    <g transform="translate(50, -3)">
        <svg xmlns="http://www.w3.org/2000/svg" xmlns:xlink="http://www.w3.org/1999/xlink" width="193.84765625" height="54.47265625">
            <path d="M12.71 14.39L12.71 40L9.39 40L9.39 14.39L0.35 14.39L0.35 11.45L21.76 11.45L21.76 14.39L12.71 14.39ZM41.13 40L38.73 40L38.09 36.95L37.93 36.95Q36.33 38.96 34.74 39.68Q33.14 40.39 30.76 40.39L30.76 40.39Q27.58 40.39 25.77 38.75Q23.96 37.11 23.96 34.08L23.96 34.08Q23.96 27.60 34.34 27.29L34.34 27.29L37.97 27.17L37.97 25.84Q37.97
            23.32 36.88 22.12Q35.80 20.92 33.42 20.92L33.42 20.92Q30.74 20.92 27.36 22.56L27.36 22.56L26.37 20.08Q27.95 19.22 29.83 18.73Q31.72 18.24 33.61 18.24L33.61 18.24Q37.44 18.24 39.29 19.94Q41.13 21.64 41.13 25.39L41.13 25.39L41.13 40ZM31.41 37.71L31.41 37.71Q34.43 37.71 36.16 36.05Q37.89 34.39 37.89 31.41L37.89 31.41L37.89 29.47L34.65 29.61Q30.78 29.75 29.07 30.81Q27.36 31.88 27.36 34.12L27.36 34.12Q27.36 35.88 28.43 36.80Q29.49 37.71 31.41 37.71ZM57.93 18.59L65.33 18.59L65.33 20.64L61.37 21.11Q61.91 21.80 62.34 22.90Q62.77 24.00 62.77
            25.39L62.77 25.39Q62.77 28.54 60.63 30.41Q58.48 32.29 54.73 32.29L54.73 32.29Q53.77 32.29 52.93 32.13L52.93 32.13Q50.86 33.22 50.86 34.88L50.86 34.88Q50.86 35.76 51.58 36.18Q52.30 36.60 54.06 36.60L54.06 36.60L57.85 36.60Q61.33 36.60 63.19 38.07Q65.06 39.53 65.06 42.32L65.06 42.32Q65.06 45.88 62.21 47.74Q59.36 49.61 53.89 49.61L53.89 49.61Q49.69 49.61 47.41 48.05Q45.14 46.48 45.14 43.63L45.14 43.63Q45.14 41.68 46.39 40.25Q47.64 38.83 49.90 38.32L49.90 38.32Q49.08 37.95 48.53 37.17Q47.97 36.39 47.97 35.35L47.97 35.35Q47.97 34.18 48.59 33.30Q49.22 32.42 50.57 31.60L50.57 31.60Q48.91 30.92 47.86 29.28Q46.82 27.64 46.82 25.53L46.82 25.53Q46.82 22.01 48.93 20.11Q51.04 18.20 54.90 18.20L54.90 18.20Q56.58 18.20 57.93 18.59L57.93 18.59ZM48.26 43.59L48.26 43.59Q48.26 45.33 49.73 46.23Q51.19 47.13 53.93 47.13L53.93 47.13Q58.01 47.13 59.97 45.91Q61.93 44.69 61.93 42.60L61.93 42.60Q61.93 40.86 60.86 40.19Q59.79 39.51 56.82 39.51L56.82 39.51L52.93 39.51Q50.72 39.51 49.49 40.57Q48.26 41.62 48.26 43.59ZM50.02 25.45L50.02 25.45Q50.02 27.70 51.29 28.85Q52.56 30 54.82 30L54.82 30Q59.57 30 59.57 25.39L59.57 25.39Q59.57 20.57 54.77 20.57L54.77 20.57Q52.48 20.57 51.25 21.80Q50.02 23.03 50.02 25.45ZM83.54 34.16L83.54 34.16Q83.54 37.15 81.31 38.77Q79.08 40.39 75.06 40.39L75.06 40.39Q70.80 40.39 68.42 39.04L68.42 39.04L68.42 36.04Q69.96 36.82 71.73 37.27Q73.50 37.71 75.14 37.71L75.14 37.71Q77.68 37.71 79.04 36.90Q80.41 36.09 80.41 34.43L80.41 34.43Q80.41 33.18 79.33 32.29Q78.24 31.41 75.10 30.20L75.10 30.20Q72.11 29.08 70.85 28.25Q69.59 27.42 68.97 26.37Q68.36 25.31 68.36 23.85L68.36 23.85Q68.36 21.23 70.49 19.72Q72.62 18.20 76.33 18.20L76.33 18.20Q79.79 18.20 83.09 19.61L83.09 19.61L81.93 22.25Q78.71 20.92 76.09 20.92L76.09 20.92Q73.79 20.92 72.62 21.64Q71.45 22.36 71.45 23.63L71.45 23.63Q71.45 24.49 71.88 25.10Q72.32 25.70 73.30 26.25Q74.28 26.80 77.05 27.83L77.05 27.83Q80.86 29.22 82.20 30.63Q83.54 32.03 83.54 34.16ZM122.48 25.45L122.48 25.45Q122.48 32.52 118.64 36.26Q114.80 40 107.60 40L107.60 40L99.69 40L99.69 11.45L108.44 11.45Q115.10 11.45 118.79 15.14Q122.48
            18.83 122.48 25.45ZM118.96 25.57L118.96 25.57Q118.96 19.98 116.16 17.15Q113.36 14.32 107.83 14.32L107.83 14.32L103.01 14.32L103.01 37.13L107.05 37.13Q112.99 37.13 115.98 34.21Q118.96 31.29 118.96 25.57ZM138.13 18.20L138.13 18.20Q139.55 18.20 140.68 18.44L140.68 18.44L140.23 21.45Q138.91 21.15 137.89 21.15L137.89 21.15Q135.29 21.15 133.45 23.26Q131.60 25.37 131.60 28.52L131.60 28.52L131.60 40L128.36 40L128.36 18.59L131.04 18.59L131.41 22.56L131.56 22.56Q132.75 20.47 134.43 19.34Q136.11 18.20 138.13 18.20ZM147.93 18.59L147.93 40L144.69 40L144.69 18.59L147.93 18.59ZM144.41 12.79L144.41 12.79Q144.41 11.68 144.96
            11.16Q145.51 10.64 146.33 10.64L146.33 10.64Q147.11 10.64 147.68 11.17Q148.24 11.70 148.24 12.79L148.24 12.79Q148.24 13.89 147.68 14.42Q147.11 14.96 146.33 14.96L146.33 14.96Q145.51 14.96 144.96 14.42Q144.41 13.89 144.41 12.79ZM163.28 40L159.49 40L151.37 18.59L154.84 18.59L159.45 31.29Q161.02 35.74 161.29 37.07L161.29 37.07L161.45 37.07Q161.66 36.04 162.80 32.78Q163.95 29.53 167.93
            18.59L167.93 18.59L171.41 18.59L163.28 40ZM183.89 40.39L183.89 40.39Q179.14 40.39 176.40 37.50Q173.65 34.61 173.65 29.47L173.65 29.47Q173.65 24.30 176.20
            21.25Q178.75 18.20 183.05 18.20L183.05 18.20Q187.07 18.20 189.41 20.85Q191.76 23.50 191.76 27.83L191.76 27.83L191.76 29.88L177.01 29.88Q177.11 33.65 178.92 35.61Q180.72 37.56 184.00 37.56L184.00 37.56Q187.46 37.56 190.84 36.11L190.84 36.11L190.84 39.00Q189.12 39.75 187.59 40.07Q186.05 40.39 183.89 40.39ZM183.01 20.92L183.01 20.92Q180.43 20.92 178.90 22.60Q177.36 24.28 177.09 27.25L177.09 27.25L188.28 27.25Q188.28 24.18 186.91 22.55Q185.55 20.92 183.01 20.92Z"/>
        </svg>
    </g>
</svg>
